<svg id="Layer_1" data-name="Layer 1" xmlns="http://www.w3.org/2000/svg" viewBox="0 0 400 140"><defs><style>.cls-1{fill:orange;}</style></defs><title>archalley-logo-ylw</title><path class="cls-1" d="M122.69,49.91h0a6,6,0,0,0-2.63,3h-.27V49h-9.7V84.33h9.84v-20c0-2.28.63-3.9,1.92-5a7.81,7.81,0,0,1,5.08-1.62h4.85V48.87h-4.71A9,9,0,0,0,122.69,49.91Z"/><path class="cls-1" d="M159.23,69.54a9.07,9.07,0,0,1-2.42,5,7.57,7.57,0,0,1-5.56,1.86,9.26,9.26,0,0,1-4.45-1.06,7.65,7.65,0,0,1-3.07-3.15,10.83,10.83,0,0,1-1.14-5.2v-.69a10.9,10.9,0,0,1,1.14-5.21A7.56,7.56,0,0,1,146.8,58a9.24,9.24,0,0,1,4.45-1.07,8.41,8.41,0,0,1,4.1.9,6.42,6.42,0,0,1,2.5,2.4A9.34,9.34,0,0,1,159,63.72l.08.61,9.56-2-.1-.55a17,17,0,0,0-3-7,15.64,15.64,0,0,0-5.9-4.9A19.59,19.59,0,0,0,151,48.05a20,20,0,0,0-9.25,2.13,16.11,16.11,0,0,0-6.6,6.21,18.84,18.84,0,0,0-2.43,9.8v1A18.88,18.88,0,0,0,135.19,77a16.18,16.18,0,0,0,6.6,6.21A20.15,20.15,0,0,0,151,85.3a19.62,19.62,0,0,0,8.66-1.78,15.75,15.75,0,0,0,5.9-4.9,19.67,19.67,0,0,0,3.16-6.85l.14-.56-9.57-2.28Z"/><path class="cls-1" d="M200.71,50.37h0a13.79,13.79,0,0,0-7.29-1.91,15.3,15.3,0,0,0-5.19.76,9.76,9.76,0,0,0-3.33,1.94,9.3,9.3,0,0,0-1.68,2.05h-.32V35h-9.83V84.33h9.83V66.4c0-3,.7-5.39,2.07-7a7,7,0,0,1,5.76-2.45,6.69,6.69,0,0,1,5,1.76c1.15,1.17,1.73,3,1.73,5.38V84.33h9.83v-21a16.66,16.66,0,0,0-1.72-7.74A13,13,0,0,0,200.71,50.37Z"/><path class="cls-1" d="M243.74,74.53V61.78c0-4.43-1.39-7.87-4.13-10.22s-6.43-3.51-11.05-3.51a19.15,19.15,0,0,0-7.71,1.39,13.73,13.73,0,0,0-5.1,3.67,14.46,14.46,0,0,0-2.76,5l-.17.54L222,61.7l.13-.63a6.43,6.43,0,0,1,1.9-3.52,6.34,6.34,0,0,1,4.43-1.33c2,0,3.52.47,4.41,1.38a4.84,4.84,0,0,1,1.35,3.56v1.35h-8.79a19.18,19.18,0,0,0-7.08,1.25,11,11,0,0,0-4.93,3.78,10.54,10.54,0,0,0-1.79,6.23,10.85,10.85,0,0,0,1.78,6.28A11.22,11.22,0,0,0,218.2,84,16.66,16.66,0,0,0,225,85.3a13.34,13.34,0,0,0,5.91-1.1,8.78,8.78,0,0,0,3.25-2.55,12,12,0,0,0,1.16-1.93h.36A4.5,4.5,0,0,0,237.51,83a7.4,7.4,0,0,0,4.55,1.35h6.36V76h-3.33C244.13,76,243.74,75.59,243.74,74.53Zm-9.56-4.27a6.24,6.24,0,0,1-2.11,5,8.06,8.06,0,0,1-5.58,1.89,6,6,0,0,1-3.84-1,3.16,3.16,0,0,1-1.24-2.59,2.85,2.85,0,0,1,1.15-2.43,5.7,5.7,0,0,1,3.45-.92h8.17Z"/><rect class="cls-1" x="251.89" y="34.96" width="9.83" height="49.38"/><rect class="cls-1" x="268.5" y="34.96" width="9.83" height="49.38"/><path class="cls-1" d="M310.15,50.37a17.28,17.28,0,0,0-9-2.32,18.61,18.61,0,0,0-9.23,2.24,15.68,15.68,0,0,0-6.22,6.36,20.11,20.11,0,0,0-2.21,9.61v.83a19.89,19.89,0,0,0,2.24,9.61A16,16,0,0,0,292,83.06a18.9,18.9,0,0,0,9.27,2.24,18.23,18.23,0,0,0,8-1.54A15.8,15.8,0,0,0,314.26,80a23.36,23.36,0,0,0,2.85-4l.28-.51-8.14-4.27-.26.54a10.61,10.61,0,0,1-2.48,3.34c-1,1-2.71,1.43-5,1.43a8.16,8.16,0,0,1-5.68-2.06,7,7,0,0,1-2.39-4.71h24.84V66.26a20.18,20.18,0,0,0-2.14-9.46A16,16,0,0,0,310.15,50.37Zm-16.54,11.8a7,7,0,0,1,2.22-3.74A7.71,7.71,0,0,1,301,56.78a7.59,7.59,0,0,1,5.1,1.65,6.06,6.06,0,0,1,2.1,3.74Z"/><path class="cls-1" d="M338.36,76.67h-.51l-10-27.61h-9.78l11,31.42a5.9,5.9,0,0,0,5.55,3.93h.88L327.88,105h10.59l20.69-55.23.29-.77H348.59Z"/><path class="cls-1" d="M100.57,58.29a32.8,32.8,0,0,1-5.87,4.05l-10-27L84.58,35H69.94L60.46,60.47c-.65-.46-1.21-.88-1.74-1.31a24.9,24.9,0,0,1-9.2-18.93v-.57h-9v.59A34,34,0,0,0,53.06,66.1,39.11,39.11,0,0,0,57.29,69L51.6,84.33H62.21l3.89-11a41.07,41.07,0,0,0,17.27,1.91,40.61,40.61,0,0,0,5.34-.91l3.52,10h10.6l-5-13.49a40.87,40.87,0,0,0,8.08-5.27l.4-.34L101,57.86Zm-18.1,8h0a31.56,31.56,0,0,1-13.38-1.47L76.8,42.88h.92l8,22.84A29.39,29.39,0,0,1,82.47,66.28Z"/></svg>